# xmcd
#
# Track frame offsets:
#	150
#	12283
#	23926
#	37661
#	49466
#	59690
#	71957
#	82007
#	94173
#	105774
#
# Disc length: 1572 seconds
#
# Revision: 1
# Processed by: cddbd v1.5.2PL0 Copyright (c) Steve Scherf et al.
# Submitted via: audiograbber 1.83.01
#
DISCID=8006220a
DTITLE=Glen Campbell - Arkansas
DYEAR=1975
DGENRE=Country
TTITLE0=Arkansas
TTITLE1=That's All That Matters
TTITLE2=She Called Me Baby
TTITLE3=Less of Me
TTITLE4=Sunny Day Girl
TTITLE5=A Place in the Sun
TTITLE6=Just Another Man
TTITLE7=It's Over
TTITLE8=You've Still Got a Place in My Heart
TTITLE9=Freeborn Man
EXTD=
EXTT0=
EXTT1=
EXTT2=
EXTT3=
EXTT4=
EXTT5=
EXTT6=
EXTT7=
EXTT8=
EXTT9=
PLAYORDER=
